<svg xmlns="http://www.w3.org/2000/svg" viewBox="0 0 1000 1250" width="1000" height="1250" role="img" aria-label="ATTACK TITAN graphic tee">
  <defs>
    <radialGradient id="bg" cx="50%" cy="38%" r="75%">
      <stop offset="0%" stop-color="#262626"/>
      <stop offset="100%" stop-color="#0B0B0B"/>
    </radialGradient>
    <linearGradient id="shade" x1="0" y1="0" x2="0" y2="1">
      <stop offset="0%" stop-color="#ffffff" stop-opacity="0.08"/>
      <stop offset="55%" stop-color="#000000" stop-opacity="0"/>
      <stop offset="100%" stop-color="#000000" stop-opacity="0.22"/>
    </linearGradient>
  </defs>
  <rect width="1000" height="1250" fill="url(#bg)"/>
  <path d="M430,205 C470,250 530,250 570,205 C620,212 660,235 700,255 C780,300 835,350 855,372 C835,408 770,452 735,438 L745,1075 L255,1075 L265,438 C230,452 165,408 145,372 C165,350 220,300 300,255 C340,235 380,212 430,205 Z" fill="#1a1410"/>
  <path d="M430,205 C470,250 530,250 570,205 C620,212 660,235 700,255 C780,300 835,350 855,372 C835,408 770,452 735,438 L745,1075 L255,1075 L265,438 C230,452 165,408 145,372 C165,350 220,300 300,255 C340,235 380,212 430,205 Z" fill="url(#shade)"/>
  <path d="M430,205 C470,250 530,250 570,205 C548,232 530,242 500,242 C470,242 452,232 430,205 Z" fill="#000000" opacity="0.18"/>
  <text x="500" y="312" text-anchor="middle" font-family="'Space Mono', 'Courier New', monospace" font-size="22" letter-spacing="8" fill="#F4F4F4" opacity="0.7">ANIMEX&#160;WEAR</text>
  <g transform="translate(500,540) scale(0.92)">
                <g fill="#F4F4F4">
                  <path d="M-18,-110 C-120,-90 -180,-30 -195,70 C-120,30 -70,10 -22,0 Z"/>
                  <path d="M-18,-40 C-110,-15 -150,40 -160,110 C-95,75 -55,55 -20,45 Z"/>
                  <path d="M18,-110 C120,-90 180,-30 195,70 C120,30 70,10 22,0 Z" opacity="0.55"/>
                  <path d="M18,-40 C110,-15 150,40 160,110 C95,75 55,55 20,45 Z" opacity="0.55"/>
                </g>
                <path d="M-12,-150 L-12,150 L12,150 L12,-150 Z" fill="#C8A24B"/></g>
  <text x="500" y="792" text-anchor="middle" font-family="Archivo, 'Arial Black', 'Helvetica Neue', sans-serif" font-weight="900" font-size="92" letter-spacing="-3" fill="#F4F4F4">ATTACK TITAN</text>
  <text x="500" y="838" text-anchor="middle" font-family="'Space Mono', 'Courier New', monospace" font-size="24" letter-spacing="7" fill="#C8A24B">SURVEY CORPS</text>
  <text x="265" y="1045" font-family="'Space Mono', 'Courier New', monospace" font-size="22" letter-spacing="4" fill="#F4F4F4" opacity="0.7">DROP 002</text>
  <text x="735" y="1045" text-anchor="end" font-family="'Space Mono', 'Courier New', monospace" font-size="22" letter-spacing="4" fill="#C8A24B">ED / 300</text>
</svg>