<svg xmlns="http://www.w3.org/2000/svg" viewBox="0 0 1000 1250" width="1000" height="1250" role="img" aria-label="SAIYAN ENERGY graphic tee">
  <defs>
    <radialGradient id="bg" cx="50%" cy="38%" r="75%">
      <stop offset="0%" stop-color="#FFFFFF"/>
      <stop offset="100%" stop-color="#E6E6E6"/>
    </radialGradient>
    <linearGradient id="shade" x1="0" y1="0" x2="0" y2="1">
      <stop offset="0%" stop-color="#ffffff" stop-opacity="0.08"/>
      <stop offset="55%" stop-color="#000000" stop-opacity="0"/>
      <stop offset="100%" stop-color="#000000" stop-opacity="0.22"/>
    </linearGradient>
  </defs>
  <rect width="1000" height="1250" fill="url(#bg)"/>
  <path d="M430,205 C470,250 530,250 570,205 C620,212 660,235 700,255 C780,300 835,350 855,372 C835,408 770,452 735,438 L745,1075 L255,1075 L265,438 C230,452 165,408 145,372 C165,350 220,300 300,255 C340,235 380,212 430,205 Z" fill="#EDEDED"/>
  <path d="M430,205 C470,250 530,250 570,205 C620,212 660,235 700,255 C780,300 835,350 855,372 C835,408 770,452 735,438 L745,1075 L255,1075 L265,438 C230,452 165,408 145,372 C165,350 220,300 300,255 C340,235 380,212 430,205 Z" fill="url(#shade)"/>
  <path d="M430,205 C470,250 530,250 570,205 C548,232 530,242 500,242 C470,242 452,232 430,205 Z" fill="#000000" opacity="0.18"/>
  <text x="500" y="312" text-anchor="middle" font-family="'Space Mono', 'Courier New', monospace" font-size="22" letter-spacing="8" fill="#141414" opacity="0.7">ANIMEX&#160;WEAR</text>
  <g transform="translate(500,540) scale(0.92)">
                <polygon points="0,-200 38,-70 165,-115 78,-15 200,30 65,40 110,170 0,80 -110,170 -65,40 -200,30 -78,-15 -165,-115 -38,-70" fill="#FFC633" opacity="0.25"/>
                <polygon points="0,-150 34,-48 150,-48 56,18 92,130 0,64 -92,130 -56,18 -150,-48 -34,-48" fill="#141414"/>
                <circle cx="0" cy="6" r="24" fill="#FFC633"/></g>
  <text x="500" y="792" text-anchor="middle" font-family="Archivo, 'Arial Black', 'Helvetica Neue', sans-serif" font-weight="900" font-size="92" letter-spacing="-3" fill="#141414">SAIYAN ENERGY</text>
  <text x="500" y="838" text-anchor="middle" font-family="'Space Mono', 'Courier New', monospace" font-size="24" letter-spacing="7" fill="#FFC633">BEYOND LIMITS</text>
  <text x="265" y="1045" font-family="'Space Mono', 'Courier New', monospace" font-size="22" letter-spacing="4" fill="#141414" opacity="0.7">DROP 016</text>
  <text x="735" y="1045" text-anchor="end" font-family="'Space Mono', 'Courier New', monospace" font-size="22" letter-spacing="4" fill="#FFC633">ED / 500</text>
</svg>