<svg xmlns="http://www.w3.org/2000/svg" viewBox="0 0 1000 1250" width="1000" height="1250" role="img" aria-label="DEMON SLAYER graphic tee">
  <defs>
    <radialGradient id="bg" cx="50%" cy="38%" r="75%">
      <stop offset="0%" stop-color="#262626"/>
      <stop offset="100%" stop-color="#0B0B0B"/>
    </radialGradient>
    <linearGradient id="shade" x1="0" y1="0" x2="0" y2="1">
      <stop offset="0%" stop-color="#ffffff" stop-opacity="0.08"/>
      <stop offset="55%" stop-color="#000000" stop-opacity="0"/>
      <stop offset="100%" stop-color="#000000" stop-opacity="0.22"/>
    </linearGradient>
  </defs>
  <rect width="1000" height="1250" fill="url(#bg)"/>
  <path d="M430,205 C470,250 530,250 570,205 C620,212 660,235 700,255 C780,300 835,350 855,372 C835,408 770,452 735,438 L745,1075 L255,1075 L265,438 C230,452 165,408 145,372 C165,350 220,300 300,255 C340,235 380,212 430,205 Z" fill="#0c1a1e"/>
  <path d="M430,205 C470,250 530,250 570,205 C620,212 660,235 700,255 C780,300 835,350 855,372 C835,408 770,452 735,438 L745,1075 L255,1075 L265,438 C230,452 165,408 145,372 C165,350 220,300 300,255 C340,235 380,212 430,205 Z" fill="url(#shade)"/>
  <path d="M430,205 C470,250 530,250 570,205 C548,232 530,242 500,242 C470,242 452,232 430,205 Z" fill="#000000" opacity="0.18"/>
  <text x="500" y="312" text-anchor="middle" font-family="'Space Mono', 'Courier New', monospace" font-size="22" letter-spacing="8" fill="#F4F4F4" opacity="0.7">ANIMEX&#160;WEAR</text>
  <g transform="translate(500,540) scale(0.92)">
                <path d="M0,-185 C70,-80 60,55 0,185 C-60,55 -70,-80 0,-185 Z" fill="#2BE2A8" opacity="0.16"/>
                <g transform="rotate(26)"><rect x="-9" y="-175" width="18" height="300" rx="6" fill="#F4F4F4"/><path d="M-9,-175 L9,-175 L0,-205 Z" fill="#F4F4F4"/><rect x="-34" y="120" width="68" height="16" rx="4" fill="#2BE2A8"/><rect x="-11" y="134" width="22" height="60" rx="6" fill="#2BE2A8"/></g>
                <g transform="rotate(-26)"><rect x="-9" y="-175" width="18" height="300" rx="6" fill="#F4F4F4"/><path d="M-9,-175 L9,-175 L0,-205 Z" fill="#F4F4F4"/><rect x="-34" y="120" width="68" height="16" rx="4" fill="#2BE2A8"/><rect x="-11" y="134" width="22" height="60" rx="6" fill="#2BE2A8"/></g>
                <circle cx="0" cy="0" r="22" fill="#2BE2A8"/></g>
  <text x="500" y="792" text-anchor="middle" font-family="Archivo, 'Arial Black', 'Helvetica Neue', sans-serif" font-weight="900" font-size="92" letter-spacing="-3" fill="#F4F4F4">DEMON SLAYER</text>
  <text x="500" y="838" text-anchor="middle" font-family="'Space Mono', 'Courier New', monospace" font-size="24" letter-spacing="7" fill="#2BE2A8">BLADE DIVISION</text>
  <text x="265" y="1045" font-family="'Space Mono', 'Courier New', monospace" font-size="22" letter-spacing="4" fill="#F4F4F4" opacity="0.7">DROP 001</text>
  <text x="735" y="1045" text-anchor="end" font-family="'Space Mono', 'Courier New', monospace" font-size="22" letter-spacing="4" fill="#2BE2A8">ED / 200</text>
</svg>